<mxfile host="app.diagrams.net" agent="Mozilla/5.0 (Macintosh; Intel Mac OS X 10_15_7) AppleWebKit/537.36 (KHTML, like Gecko) Chrome/128.0.0.0 Safari/537.36" version="24.7.10">
  <diagram name="페이지-1" id="pMV4dl1nzcvc_YWF13aH">
    <mxGraphModel dx="2234" dy="1183" grid="1" gridSize="10" guides="1" tooltips="1" connect="1" arrows="1" fold="1" page="1" pageScale="1" pageWidth="827" pageHeight="1169" math="0" shadow="0">
      <root>
        <mxCell id="0" />
        <mxCell id="1" parent="0" />
        <mxCell id="thbL8XLCaNcCesoDMZGl-1" value="Vector DB" style="rounded=0;whiteSpace=wrap;html=1;" vertex="1" parent="1">
          <mxGeometry x="70" y="430" width="160" height="140" as="geometry" />
        </mxCell>
        <mxCell id="thbL8XLCaNcCesoDMZGl-2" value="LLM" style="rounded=0;whiteSpace=wrap;html=1;" vertex="1" parent="1">
          <mxGeometry x="490" y="430" width="160" height="140" as="geometry" />
        </mxCell>
        <mxCell id="thbL8XLCaNcCesoDMZGl-3" value="Embedding" style="rounded=0;whiteSpace=wrap;html=1;" vertex="1" parent="1">
          <mxGeometry x="280" y="430" width="160" height="140" as="geometry" />
        </mxCell>
        <mxCell id="thbL8XLCaNcCesoDMZGl-4" value="" style="shape=flexArrow;endArrow=classic;html=1;rounded=0;" edge="1" parent="1">
          <mxGeometry width="50" height="50" relative="1" as="geometry">
            <mxPoint x="494" y="370" as="sourcePoint" />
            <mxPoint x="230" y="370" as="targetPoint" />
          </mxGeometry>
        </mxCell>
        <mxCell id="thbL8XLCaNcCesoDMZGl-5" value="" style="shape=flexArrow;endArrow=classic;html=1;rounded=0;" edge="1" parent="1">
          <mxGeometry width="50" height="50" relative="1" as="geometry">
            <mxPoint x="240" y="320" as="sourcePoint" />
            <mxPoint x="510" y="320" as="targetPoint" />
          </mxGeometry>
        </mxCell>
        <mxCell id="thbL8XLCaNcCesoDMZGl-7" value="Persist" style="text;html=1;align=center;verticalAlign=middle;whiteSpace=wrap;rounded=0;" vertex="1" parent="1">
          <mxGeometry x="330" y="335" width="60" height="30" as="geometry" />
        </mxCell>
        <mxCell id="thbL8XLCaNcCesoDMZGl-8" value="Retrieval" style="text;html=1;align=center;verticalAlign=middle;whiteSpace=wrap;rounded=0;" vertex="1" parent="1">
          <mxGeometry x="307" y="280" width="106" height="30" as="geometry" />
        </mxCell>
        <mxCell id="thbL8XLCaNcCesoDMZGl-9" value="Prompt" style="rounded=0;whiteSpace=wrap;html=1;" vertex="1" parent="1">
          <mxGeometry x="500" y="140" width="170" height="120" as="geometry" />
        </mxCell>
        <mxCell id="thbL8XLCaNcCesoDMZGl-10" value="Retriever" style="rounded=0;whiteSpace=wrap;html=1;" vertex="1" parent="1">
          <mxGeometry x="280" y="140" width="170" height="120" as="geometry" />
        </mxCell>
        <mxCell id="thbL8XLCaNcCesoDMZGl-11" value="LangServe" style="rounded=0;whiteSpace=wrap;html=1;" vertex="1" parent="1">
          <mxGeometry x="-220" y="350" width="120" height="120" as="geometry" />
        </mxCell>
        <mxCell id="thbL8XLCaNcCesoDMZGl-12" value="Streamlit" style="rounded=0;whiteSpace=wrap;html=1;" vertex="1" parent="1">
          <mxGeometry x="-410" y="350" width="120" height="120" as="geometry" />
        </mxCell>
        <mxCell id="thbL8XLCaNcCesoDMZGl-13" value="" style="rounded=0;whiteSpace=wrap;html=1;fillColor=none;strokeWidth=6;" vertex="1" parent="1">
          <mxGeometry x="50" y="110" width="650" height="510" as="geometry" />
        </mxCell>
        <mxCell id="thbL8XLCaNcCesoDMZGl-14" value="" style="shape=flexArrow;endArrow=classic;html=1;rounded=0;" edge="1" parent="1">
          <mxGeometry width="50" height="50" relative="1" as="geometry">
            <mxPoint x="20" y="400" as="sourcePoint" />
            <mxPoint x="-90" y="400" as="targetPoint" />
          </mxGeometry>
        </mxCell>
        <mxCell id="thbL8XLCaNcCesoDMZGl-15" value="User" style="shape=umlActor;verticalLabelPosition=bottom;verticalAlign=top;html=1;outlineConnect=0;" vertex="1" parent="1">
          <mxGeometry x="-570" y="380" width="30" height="60" as="geometry" />
        </mxCell>
      </root>
    </mxGraphModel>
  </diagram>
</mxfile>
